Coordinates
version=1
nRows=10
nColumns=63
inDegrees=yes

Units are S.I. units (second, meters, Newtons, ...)
If the header above contains a line with 'inDegrees', this indicates whether rotational values are in degrees (yes) or radians (no).

endheader
time	pelvis_tilt	pelvis_list	pelvis_rotation	pelvis_tx	pelvis_ty	pelvis_tz	hip_flexion_r	hip_adduction_r	hip_rotation_r	knee_angle_r	knee_angle_r_beta	ankle_angle_r	subtalar_angle_r	mtp_angle_r	hip_flexion_l	hip_adduction_l	hip_rotation_l	knee_angle_l	knee_angle_l_beta	ankle_angle_l	subtalar_angle_l	mtp_angle_l	L5_S1_Flex_Ext	L5_S1_Lat_Bending	L5_S1_axial_rotation	L4_L5_Flex_Ext	L4_L5_Lat_Bending	L4_L5_axial_rotation	L3_L4_Flex_Ext	L3_L4_Lat_Bending	L3_L4_axial_rotation	L2_L3_Flex_Ext	L2_L3_Lat_Bending	L2_L3_axial_rotation	L1_L2_Flex_Ext	L1_L2_Lat_Bending	L1_L2_axial_rotation	L1_T12_Flex_Ext	L1_T12_Lat_Bending	L1_T12_axial_rotation	Abs_r3	Abs_r2	Abs_r1	Abs_t1	Abs_t2	neck_flexion	neck_bending	neck_rotation	arm_flex_r	arm_add_r	arm_rot_r	elbow_flex_r	pro_sup_r	wrist_flex_r	wrist_dev_r	arm_flex_l	arm_add_l	arm_rot_l	elbow_flex_l	pro_sup_l	wrist_flex_l	wrist_dev_l
      0.00000000	      0.14768639	     -5.49793526	     95.09255528	      0.25784522	      0.40167972	      0.91450513	      6.12128767	     -0.13119467	     -9.14212536	      4.27877688	      0.07467874	     22.73678156	      1.63565303	      0.00000000	      7.31209614	      1.45255962	      2.03057211	      4.63462746	      0.08088951	     23.54756798	      5.70745500	      0.00000000	      0.21594913	      0.14309239	     -0.64663379	      0.40103912	      0.19031288	     -0.68704840	      0.35478282	      0.34791485	     -0.68704840	      0.24680826	      0.34791485	     -0.56580457	      0.20053036	      0.29179401	     -0.52538996	      0.12339333	      0.22165012	     -0.48497534	      1.54250301	      1.61868978	     -3.59638316	      0.00000000	      0.00000000	     23.49702892	      1.78988398	     10.17769517	     24.01070383	     -9.35799434	     79.12975719	     45.98888213	     50.37720765	      6.56742383	     10.43848465	     18.00589330	    -10.95311791	     63.09102605	     47.63832250	     88.23958817	      2.77764365	     12.29287502
      0.01785714	      0.03162284	     -5.52794266	     95.55067420	      0.25739750	      0.40188324	      0.91449088	      5.86814634	     -0.09454459	     -3.89712446	      3.75904155	      0.06560765	     20.97958621	     -5.51852249	      0.00000000	      7.43554913	      1.59143863	      1.81914420	      4.69875444	      0.08200874	     23.72073159	      6.55043243	      0.00000000	      0.21268208	      0.12228341	     -0.76837331	      0.39497189	      0.16263693	     -0.81639664	      0.34941538	      0.29731988	     -0.81639664	      0.24307435	      0.29731988	     -0.67232664	      0.19749658	      0.24936033	     -0.62430331	      0.12152654	      0.18941700	     -0.57627998	      1.51916681	      1.38329438	     -4.27346182	      0.00000000	      0.00000000	     23.75660927	      2.56562464	     11.09361646	     22.43113685	     -9.18427268	     74.44422212	     46.05875923	     51.07391295	      6.84006212	     14.14569033	     17.31421301	    -11.21268093	     62.45369214	     47.95365353	     87.86187727	      1.75397897	     11.46628990
      0.03571429	     -0.05586878	     -5.58419008	     95.86827753	      0.25687348	      0.40189770	      0.91447327	      5.86122554	     -0.20223778	     -2.30818337	      3.80250334	      0.06636620	     20.29742691	     -7.72377973	      0.00000000	      7.53208793	      1.72428492	      2.01058500	      4.74199962	      0.08276351	     23.73817695	      6.84472300	      0.00000000	      0.21636861	      0.10988763	     -0.84816631	      0.40181814	      0.14615054	     -0.90117670	      0.35547199	      0.26718078	     -0.90117670	      0.24728768	      0.26718078	     -0.74214552	      0.20091989	      0.22408285	     -0.68913513	      0.12363302	      0.17021593	     -0.63612473	      1.54549933	      1.24307081	     -4.71724656	      0.00000000	      0.00000000	     23.87603976	      3.03361500	     11.72822647	     20.98448563	     -9.16927219	     70.97325063	     46.36578315	     51.15422633	      6.16481592	     16.06928437	     16.71027247	    -11.28755158	     62.12130097	     48.04331774	     87.05921765	      1.46920199	     10.69518370
      0.05357143	     -0.14993140	     -5.61834667	     96.14091496	      0.25644787	      0.40178783	      0.91443937	      5.90186356	     -0.33229625	     -1.74715537	      4.03442852	      0.07041406	     19.94150690	     -8.77382543	      0.00000000	      7.59431193	      1.86576967	      2.42134795	      4.82217487	      0.08416283	     23.67984257	      6.88077065	      0.00000000	      0.21851768	      0.10036234	     -0.94623149	      0.40580919	      0.13348192	     -1.00537096	      0.35900270	      0.24402100	     -1.00537096	      0.24974386	      0.24402100	     -0.82795255	      0.20291552	      0.20465889	     -0.76881309	      0.12486100	      0.15546127	     -0.70967362	      1.56084996	      1.13531889	     -5.26265568	      0.00000000	      0.00000000	     23.89008089	      3.41236295	     12.55480631	     19.91049640	     -9.13667492	     69.05578874	     46.58800616	     50.79139159	      5.23112583	     16.30991324	     16.00503793	    -11.37844469	     61.65493334	     48.12661655	     85.37569561	      1.79868198	     10.20083283
      0.07142857	     -0.24014054	     -5.68505247	     96.30134207	      0.25615133	      0.40154148	      0.91430959	      6.01434730	     -0.45244505	     -1.34357627	      4.35015140	      0.07592446	     19.69337429	     -9.61280660	      0.00000000	      7.65503234	      2.00203874	      2.95889990	      4.88992654	      0.08534532	     23.56305758	      6.66707705	      0.00000000	      0.23096240	      0.08991462	     -0.99935329	      0.42892028	      0.11958645	     -1.06181287	      0.37944813	      0.21861841	     -1.06181287	      0.26396693	      0.21861841	     -0.87443413	      0.21447169	      0.18335390	     -0.81197455	      0.13197192	      0.13927775	     -0.74951497	      1.64974135	      1.01713218	     -5.55810321	      0.00000000	      0.00000000	     23.84840698	      3.68220184	     12.97459753	     18.88841166	     -9.22330955	     67.80344726	     46.83079672	     50.85448004	      4.29731331	     15.14287712	     15.49164676	    -11.39084437	     61.74110390	     48.01772571	     82.68554959	      2.56826099	      9.78732784
      0.08928571	     -0.32004172	     -5.69758341	     96.38311136	      0.25586705	      0.40130905	      0.91415242	      6.10341748	     -0.56071379	     -1.14846258	      4.70525409	      0.08212218	     19.62292102	    -10.12300296	      0.00000000	      7.62903953	      2.12913561	      3.66097023	      4.93054465	      0.08605424	     23.39697197	      6.13123480	      0.00000000	      0.23620407	      0.08373225	     -1.02871918	      0.43865459	      0.11136389	     -1.09301413	      0.38805967	      0.20358659	     -1.09301413	      0.26995764	      0.20358659	     -0.90012928	      0.21933910	      0.17074680	     -0.83583433	      0.13496701	      0.12970125	     -0.77153938	      1.68718208	      0.94719593	     -5.72142746	      0.00000000	      0.00000000	     23.85858291	      3.76006547	     13.25596960	     18.11168900	     -9.38281604	     67.35987514	     46.96759151	     51.22616715	      3.56137200	     13.04934521	     15.23981920	    -11.38888768	     62.54227689	     47.80316498	     79.17490077	      3.20512774	      9.30490849
      0.10714286	     -0.37773351	     -5.66106657	     96.44108544	      0.25557708	      0.40116858	      0.91400620	      6.16246435	     -0.64629196	     -1.08936819	      5.01839205	      0.08758746	     19.78839449	    -10.32616988	      0.00000000	      7.49299558	      2.25561028	      4.93232009	      4.83575671	      0.08439988	     23.00278058	      4.59790559	      0.00000000	      0.23541613	      0.08279413	     -1.02996558	      0.43719129	      0.11011619	     -1.09433843	      0.38676515	      0.20130564	     -1.09433843	      0.26905709	      0.20130564	     -0.90121989	      0.21860742	      0.16883378	     -0.83684704	      0.13451677	      0.12824810	     -0.77247419	      1.68155385	      0.93658371	     -5.72835959	      0.00000000	      0.00000000	     24.05424329	      3.76096582	     13.42074076	     17.58495251	     -9.60827474	     67.45985080	     47.05209789	     51.23116831	      2.95240760	     10.97262359	     15.46406234	    -11.48537764	     65.02196384	     47.65955480	     74.20156544	      1.79347134	      7.95797878
      0.12500000	     -0.41777220	     -5.70018442	     96.51117070	      0.25542675	      0.40093461	      0.91389086	      6.35656180	     -0.72097980	     -1.00835417	      5.29952365	      0.09249414	     20.27952313	    -10.37562123	      0.00000000	      7.52784871	      2.31726423	      5.05151072	      4.87427424	      0.08507213	     22.94210854	      4.46640315	      0.00000000	      0.24373891	      0.07914280	     -1.04359847	      0.45264753	      0.10525993	     -1.10882337	      0.40043865	      0.19242781	     -1.10882337	      0.27856920	      0.19242781	     -0.91314866	      0.22633595	      0.16138800	     -0.84792375	      0.13927241	      0.12259220	     -0.78269885	      1.74100265	      0.89527922	     -5.80418159	      0.00000000	      0.00000000	     24.46693770	      3.93443181	     13.51052312	     17.16944601	     -9.74476238	     67.84612629	     47.08788549	     51.85826239	      2.19483619	      8.67701485	     15.25084028	    -11.45727108	     65.50677832	     47.56553254	     73.74355520	      2.05696079	      7.27703309
      0.14285714	     -0.43816735	     -5.66017550	     96.52164765	      0.25536184	      0.40091153	      0.91379377	      6.42884518	     -0.76696640	     -0.78765719	      5.38670143	      0.09401568	     20.96849251	    -10.19131195	      0.00000000	      7.48572166	      2.34039419	      4.98246275	      4.88824809	      0.08531602	     22.91649510	      4.33452712	      0.00000000	      0.24336637	      0.07612280	     -1.04738302	      0.45195568	      0.10124333	     -1.11284446	      0.39982660	      0.18508498	     -1.11284446	      0.27814342	      0.18508498	     -0.91646015	      0.22599001	      0.15522962	     -0.85099871	      0.13905954	      0.11791422	     -0.78553727	      1.73834161	      0.86111635	     -5.82523016	      0.00000000	      0.00000000	     24.81788211	      4.09624218	     13.35409721	     17.17381991	     -9.84407124	     69.07329382	     46.99089018	     53.09388388	      1.16904048	      6.45834928	     15.39001445	    -11.42163638	     66.61051174	     47.26031563	     73.38216715	      2.25995058	      6.13108326
      0.16071429	     -0.43046590	     -5.59505089	     96.59642395	      0.25515195	      0.40088816	      0.91370159	      6.49442974	     -0.83142884	     -1.46138076	      5.50705617	      0.09611626	     22.04853523	     -8.75030018	      0.00000000	      7.41661385	      2.33101019	      4.70787637	      4.87489930	      0.08508304	     22.94270198	      4.52513891	      0.00000000	      0.24036655	      0.07690429	     -1.05378432	      0.44638472	      0.10228271	     -1.11964584	      0.39489820	      0.18698510	     -1.11964584	      0.27471493	      0.18698510	     -0.92206128	      0.22320438	      0.15682323	     -0.85619976	      0.13734545	      0.11912475	     -0.79033824	      1.71691422	      0.86995674	     -5.86083227	      0.00000000	      0.00000000	     25.21615254	      4.20196656	     13.15743681	     17.09777306	     -9.94361390	     69.60798849	     47.08270583	     53.04267341	      0.75016550	      6.09073095	     15.60322631	    -11.39885906	     67.63735321	     47.17784991	     72.46906403	      1.97896661	      5.78897066
